<svg width="21" height="21" viewBox="0 0 21 21" fill="none" xmlns="http://www.w3.org/2000/svg">
<path fill-rule="evenodd" clip-rule="evenodd" d="M10.1389 0.216797C7.42457 0.216797 7.08329 0.228702 6.01579 0.276323C4.95226 0.323943 4.22605 0.494584 3.59111 0.740624C2.93235 0.994601 2.37678 1.33985 1.82121 1.89542C1.26563 2.451 0.92435 3.01054 0.666405 3.66533C0.420365 4.30027 0.249725 5.02648 0.202104 6.09398C0.154483 7.15751 0.142578 7.49879 0.142578 10.2132C0.142578 12.9275 0.154483 13.2688 0.202104 14.3363C0.249725 15.3998 0.420365 16.1261 0.666405 16.765C0.920382 17.4237 1.26563 17.9793 1.82121 18.5349C2.37678 19.0904 2.93632 19.4317 3.59111 19.6897C4.22605 19.9357 4.95226 20.1064 6.01976 20.154C7.08726 20.2016 7.42457 20.2135 10.1429 20.2135C12.8613 20.2135 13.1986 20.2016 14.2661 20.154C15.3296 20.1064 16.0558 19.9357 16.6947 19.6897C17.3535 19.4357 17.909 19.0904 18.4646 18.5349C19.0202 17.9793 19.3615 17.4198 19.6194 16.765C19.8655 16.13 20.0361 15.4038 20.0837 14.3363C20.1313 13.2688 20.1432 12.9315 20.1432 10.2132C20.1432 7.49482 20.1313 7.15751 20.0837 6.09001C20.0361 5.02648 19.8655 4.30027 19.6194 3.66136C19.3654 3.0026 19.0202 2.44703 18.4646 1.89146C17.909 1.33588 17.3495 0.994601 16.6947 0.736656C16.0598 0.490616 15.3336 0.319975 14.2661 0.272354C13.1946 0.228702 12.8533 0.216797 10.1389 0.216797ZM10.1389 5.08105C7.30545 5.08105 5.00378 7.37875 5.00378 10.2161C5.00378 13.0535 7.30148 15.3512 10.1389 15.3512C12.9763 15.3512 15.274 13.0535 15.274 10.2161C15.274 7.37875 12.9763 5.08105 10.1389 5.08105ZM10.1389 13.5456C8.29754 13.5456 6.80543 12.0535 6.80543 10.2122C6.80543 8.37085 8.29754 6.87873 10.1389 6.87873C11.9802 6.87873 13.4723 8.37085 13.4723 10.2122C13.4723 12.0535 11.9802 13.5456 10.1389 13.5456ZM16.6747 4.87521C16.6747 5.5371 16.1382 6.07366 15.4763 6.07366C14.8144 6.07366 14.2778 5.5371 14.2778 4.87521C14.2778 4.21332 14.8144 3.67676 15.4763 3.67676C16.1382 3.67676 16.6747 4.21332 16.6747 4.87521Z" fill="white"/>
</svg>
