<svg width="25" height="16" viewBox="0 0 25 16" fill="none" xmlns="http://www.w3.org/2000/svg">
<path d="M20.7455 8.81822C20.3413 8.29323 20.457 8.05965 20.7455 7.59037C20.7507 7.58501 24.0873 2.84287 24.4311 1.23465L24.4331 1.23358C24.604 0.647511 24.4331 0.216797 23.6071 0.216797H20.8736C20.1778 0.216797 19.8569 0.58644 19.6851 1.00001C19.6851 1.00001 18.2933 4.42644 16.3245 6.64751C15.6891 7.2893 15.3953 7.49501 15.0484 7.49501C14.8776 7.49501 14.612 7.2893 14.612 6.70323V1.23358C14.612 0.530725 14.4172 0.216797 13.8411 0.216797H9.54304C9.10657 0.216797 8.84718 0.544654 8.84718 0.850011C8.84718 1.51644 9.83159 1.66965 9.93368 3.54465V7.61287C9.93368 8.5043 9.77638 8.66822 9.42741 8.66822C8.49821 8.66822 6.24292 5.22787 4.90642 1.29037C4.63662 0.52644 4.37307 0.217868 3.672 0.217868H0.937532C0.157297 0.217868 0 0.587511 0 1.00108C0 1.7318 0.929199 5.36501 4.32098 10.165C6.58148 13.4414 9.76492 15.2168 12.6609 15.2168C14.4015 15.2168 14.614 14.8225 14.614 14.1443C14.614 11.0136 14.4568 10.7179 15.3287 10.7179C15.7328 10.7179 16.4287 10.9236 18.0537 12.5039C19.9111 14.3779 20.2163 15.2168 21.2559 15.2168H23.9894C24.7686 15.2168 25.1634 14.8225 24.9363 14.0447C24.4165 12.4086 20.9039 9.04323 20.7455 8.81822Z" fill="white"/>
</svg>
