<svg width="171" height="60" viewBox="0 0 171 60" fill="none" xmlns="http://www.w3.org/2000/svg">
<path d="M25.7304 47.2173H0V37.0435H170.196V43.3043H127.848V57.1304H131.064V59.9999H121.683V57.1304H125.704V43.3043H123.56L119.539 47.2173H70.2226V53.2173H25.7304V47.2173Z" fill="#2E2484"/>
<rect x="0.5" y="0.5" width="170" height="41.2608" fill="#2E2484" stroke="#2E2484"/>
<rect x="0.5" y="37.5435" width="170" height="4.21738" fill="#2E2484" stroke="#2E2484"/>
<rect x="0.5" y="34.4131" width="170" height="1.08695" fill="#DEDFDE" stroke="#2E2484"/>
<path fill-rule="evenodd" clip-rule="evenodd" d="M2.14404 32.8677V42.259H2.64404L2.64404 32.8677H2.14404ZM64.8622 32.8681V42.2594H65.3622V32.8681L64.8622 32.8681ZM23.0509 42.2594V32.8681L23.5509 32.8681V42.2594H23.0509ZM85.7671 32.8681V42.2594H86.2671V32.8681L85.7671 32.8681ZM127.582 42.2594V32.8681L128.082 32.8681V42.2594H127.582ZM43.9558 32.8681V42.2594H44.4558V32.8681L43.9558 32.8681ZM106.672 42.2594V32.8681L107.172 32.8681V42.2594H106.672ZM148.487 32.8681V42.2594H148.987V32.8681L148.487 32.8681ZM9.11503 42.2594V32.8681L9.61503 32.8681V42.2594H9.11503ZM71.8294 32.8681V42.2594H72.3294V32.8681L71.8294 32.8681ZM30.0181 42.2594V32.8681L30.5181 32.8681V42.2594H30.0181ZM92.7376 32.8681V42.2594H93.2376V32.8681L92.7376 32.8681ZM134.549 42.2594V32.8681L135.049 32.8681V42.2594H134.549ZM50.9231 32.8681V42.2594H51.4231V32.8681L50.9231 32.8681ZM113.644 42.2594V32.8681L114.144 32.8681V42.2594H113.644ZM155.454 32.8681V42.2594H155.954V32.8681L155.454 32.8681ZM16.0804 42.2594V32.8681L16.5804 32.8681V42.2594H16.0804ZM78.7999 32.8681V42.2594H79.2999V32.8681L78.7999 32.8681ZM36.9886 42.2594V32.8681L37.4886 32.8681V42.2594H36.9886ZM99.7048 32.8681V42.2594H100.205V32.8681L99.7048 32.8681ZM141.516 42.2594V32.8681L142.016 32.8681V42.2594H141.516ZM57.8936 32.8681V42.2594H58.3936V32.8681L57.8936 32.8681ZM120.611 42.2594V32.8681L121.111 32.8681V42.2594H120.611ZM162.422 32.8681V42.2594H162.922V32.8681L162.422 32.8681Z" fill="#2E2484"/>
<ellipse cx="35.3789" cy="53.7374" rx="6.4326" ry="6.26086" fill="#4A494A"/>
<ellipse cx="35.3787" cy="53.7374" rx="4.2884" ry="4.17391" fill="#DEDFDE"/>
<ellipse cx="49.3164" cy="53.7374" rx="6.4326" ry="6.26086" fill="#4A494A"/>
<ellipse cx="49.3162" cy="53.7374" rx="4.2884" ry="4.17391" fill="#DEDFDE"/>
<ellipse cx="63.2534" cy="53.7374" rx="6.4326" ry="6.26086" fill="#4A494A"/>
<ellipse cx="63.2532" cy="53.7374" rx="4.2884" ry="4.17391" fill="#DEDFDE"/>
<mask id="path-13-inside-1" fill="white">
<path fill-rule="evenodd" clip-rule="evenodd" d="M75.0465 44.8711H72.9023V53.7406H113.642V44.8711H111.498V49.5645H75.0465V44.8711Z"/>
</mask>
<path fill-rule="evenodd" clip-rule="evenodd" d="M75.0465 44.8711H72.9023V53.7406H113.642V44.8711H111.498V49.5645H75.0465V44.8711Z" fill="#2E2484"/>
<path d="M72.9023 44.8711V44.3711H72.4023V44.8711H72.9023ZM75.0465 44.8711H75.5465V44.3711H75.0465V44.8711ZM72.9023 53.7406H72.4023V54.2406H72.9023V53.7406ZM113.642 53.7406V54.2406H114.142V53.7406H113.642ZM113.642 44.8711H114.142V44.3711H113.642V44.8711ZM111.498 44.8711V44.3711H110.998V44.8711H111.498ZM111.498 49.5645V50.0645H111.998V49.5645H111.498ZM75.0465 49.5645H74.5465V50.0645H75.0465V49.5645ZM72.9023 45.3711H75.0465V44.3711H72.9023V45.3711ZM73.4023 53.7406V44.8711H72.4023V53.7406H73.4023ZM113.642 53.2406H72.9023V54.2406H113.642V53.2406ZM113.142 44.8711V53.7406H114.142V44.8711H113.142ZM111.498 45.3711H113.642V44.3711H111.498V45.3711ZM110.998 44.8711V49.5645H111.998V44.8711H110.998ZM111.498 49.0645H75.0465V50.0645H111.498V49.0645ZM75.5465 49.5645V44.8711H74.5465V49.5645H75.5465Z" fill="#2E2484" mask="url(#path-13-inside-1)"/>
</svg>
