<svg width="96" height="88" viewBox="0 0 96 88" fill="none" xmlns="http://www.w3.org/2000/svg">
<path fill-rule="evenodd" clip-rule="evenodd" d="M48.9687 63.0002C52.171 63.0002 55.1852 61.7521 57.4477 59.4838L85.9735 30.9398C87.253 35.0677 87.9439 39.452 87.9439 43.9996C87.9439 68.3 68.2565 88 43.9723 88C19.6875 88 0 68.3 0 43.9996C0 19.7 19.6875 0 43.9723 0C54.8492 0 64.787 3.97193 72.4623 10.5198L48.9687 34.0277L40.4582 25.5162C38.1957 23.2479 35.1815 21.9998 31.9799 21.9998C28.7776 21.9998 25.7634 23.2479 23.5009 25.5162C21.2348 27.7801 19.9876 30.7955 19.9876 33.9999C19.9876 37.2042 21.2348 40.2196 23.5009 42.4842L40.4904 59.4838C42.7529 61.7521 45.7671 63.0002 48.9687 63.0002ZM46.142 53.8301C46.9216 54.6102 47.9448 55.002 48.9681 55.002C49.9914 55.002 51.0154 54.6102 51.7942 53.8301L94.7674 10.8303C96.3301 9.26582 96.3301 6.73823 94.7674 5.17377C93.2039 3.61005 90.6779 3.61005 89.1152 5.17377L48.9681 45.3457L34.8055 31.1741C33.242 29.6096 30.716 29.6096 29.1533 31.1741C27.5898 32.7378 27.5898 35.2661 29.1533 36.8299L46.142 53.8301Z" fill="#2E2484"/>
</svg>
