<svg xmlns="http://www.w3.org/2000/svg" width="46" height="32" viewBox="0 0 46 32"><g><g><g><g><g><path d="M19.018 6.826L17.04 8.803l2.84 2.84H7.078v2.797h12.8l-2.839 2.838 1.978 1.978 6.215-6.215z"/></g></g></g><g><g><g><path d="M42.97 24.24zm-5.435-4.104a5.662 5.662 0 0 0-5.482 4.275h-.102V8.747h2.968v9.23h8.052v6.263a5.662 5.662 0 0 0-5.436-4.104zm0 8.509a2.859 2.859 0 0 1-2.855-2.856 2.859 2.859 0 0 1 2.855-2.855 2.859 2.859 0 0 1 2.856 2.855 2.859 2.859 0 0 1-2.856 2.856zm.182-19.898h5.254v6.433h-5.254zM29.154 24.41H17.352a5.662 5.662 0 0 0-5.483-4.274 5.662 5.662 0 0 0-5.482 4.274h-3.36V2.966h26.127zM11.87 28.645a2.859 2.859 0 0 1-2.855-2.856 2.859 2.859 0 0 1 2.855-2.855 2.859 2.859 0 0 1 2.856 2.855 2.859 2.859 0 0 1-2.856 2.856zM31.951 5.95V.169H.23v27.04h6.168a5.663 5.663 0 0 0 5.472 4.233 5.663 5.663 0 0 0 5.472-4.234h14.722a5.663 5.663 0 0 0 5.472 4.234 5.663 5.663 0 0 0 5.472-4.234h2.76V5.95z"/></g></g></g></g></g></svg>