<svg width="89" height="88" viewBox="0 0 89 88" fill="none" xmlns="http://www.w3.org/2000/svg">
<path d="M71.0919 52.79C69.3193 52.79 67.9899 53.2295 66.6604 53.2295L53.809 40.484L64.4446 29.9359L78.1824 25.1014L88.3748 8.83984C88.818 7.96084 88.818 6.64233 88.3748 6.20283L83.057 0.928805C82.1707 0.0498015 80.8413 0.0498014 79.955 0.489303L63.1152 10.1583L57.7974 24.2224L47.1617 34.7705L35.1966 22.0249C35.1966 20.7064 35.6398 19.3879 35.6398 17.6299C35.6398 6.20283 24.561 -2.14771 13.4822 0.489303L20.1295 7.08183C23.6747 10.5978 23.6747 15.8719 20.1295 19.3879C16.5842 22.9039 11.2664 22.9039 7.72121 19.3879L0.630776 13.2349C-2.91444 25.9804 9.05066 38.2865 22.3452 34.331L35.1966 47.0765L29.8788 52.3505C26.7767 51.4715 23.6747 52.3505 21.4589 54.548L3.28969 72.5676C-0.255528 76.0836 -0.69868 81.3577 2.40338 84.8737C5.9486 88.8292 11.7096 88.8292 15.2548 85.3132L33.8672 66.8541C36.0829 64.6566 36.9692 61.1406 36.0829 58.5036L41.4007 53.2295L54.2521 65.9751C53.809 67.2936 53.809 69.0516 53.809 70.3701C53.809 81.7972 64.8878 90.1477 75.9666 87.5107L69.3193 80.9182C65.7741 77.4022 65.7741 72.1281 69.3193 68.6121C72.8645 65.0961 78.1824 65.0961 81.7276 68.6121L88.3748 75.2046C91.4769 63.7776 82.6139 52.79 71.0919 52.79Z" fill="#2E2484"/>
</svg>
