<svg width="91" height="89" viewBox="0 0 91 89" fill="none" xmlns="http://www.w3.org/2000/svg">
<path d="M77.6804 10.9637C72.5695 5.83395 66.5586 2.18369 60.1491 0V13.7934C63.235 15.3375 66.16 17.3468 68.7251 19.931C81.5377 32.8135 81.5377 53.7589 68.7251 66.6349C55.9126 79.4916 35.0834 79.4916 22.2516 66.6349C9.45189 53.746 9.45189 32.8135 22.2516 19.931C22.2837 19.8923 22.3866 19.8277 22.4316 19.7695H22.4444L30.0368 27.3866L29.9918 3.19801L5.93536 3.16571L13.4956 10.7634C13.4506 10.8409 13.3799 10.9185 13.322 10.9637C-4.44067 28.8079 -4.44067 57.758 13.322 75.6023C31.1104 93.4659 59.8984 93.4659 77.6804 75.6023C95.4302 57.758 95.4495 28.8079 77.6804 10.9637Z" fill="#2E2484"/>
</svg>
