<svg width="88" height="88" viewBox="0 0 88 88" fill="none" xmlns="http://www.w3.org/2000/svg">
<path fill-rule="evenodd" clip-rule="evenodd" d="M44 0C55.7528 0 66.8021 4.57686 75.1128 12.8872C83.4231 21.1979 88 32.2472 88 44C88 55.7528 83.4231 66.8021 75.1128 75.1128C66.8021 83.4231 55.7528 88 44 88C32.2472 88 21.1979 83.4231 12.8872 75.1128C4.57686 66.8021 0 55.7528 0 44C0 32.2472 4.57686 21.1979 12.8872 12.8872C21.1979 4.57686 32.2472 0 44 0ZM57.6838 49.5835V45.4566H55.5476V35.6491H52.3916L44.6961 45.4566V49.5835H50.9352V52.5938H55.5474V49.5835H57.6838ZM13.9219 44C13.9219 60.5851 27.4149 74.0781 44 74.0781C60.5851 74.0781 74.0781 60.5851 74.0781 44H68.9219C68.9219 57.7419 57.7419 68.9219 44 68.9219C30.2581 68.9219 19.0781 57.7419 19.0781 44C19.0781 30.2581 30.2581 19.0781 44 19.0781V23.792L53.1826 16.5L44 9.20803V13.9219C27.4149 13.9219 13.9219 27.4149 13.9219 44ZM36.4665 39.3876C36.9196 39.3876 37.2757 39.4847 37.5348 39.6789C37.7934 39.8731 37.9232 40.1727 37.9232 40.5768C37.9232 40.7225 37.8869 40.8561 37.814 40.9774C37.7412 41.0989 37.575 41.2486 37.3163 41.4265C37.0573 41.6049 36.6731 41.8356 36.1632 42.1185C35.6534 42.4019 34.9616 42.7781 34.0876 43.2474C33.4079 43.62 32.8374 44 32.3761 44.3884C31.9148 44.7769 31.5385 45.2181 31.2472 45.7115C30.9557 46.2055 30.7453 46.7598 30.6159 47.3746C30.4862 47.9897 30.4219 48.7018 30.4219 49.5108H43.2152V45.3839H37.8745C38.3116 45.0766 38.7523 44.7975 39.1976 44.5464C39.6426 44.2956 40.0673 44.0327 40.4723 43.7573C40.8121 43.531 41.1355 43.2881 41.4432 43.0291C41.7503 42.7704 42.0136 42.4829 42.2321 42.1673C42.4505 41.8517 42.6241 41.4997 42.7539 41.1113C42.8833 40.7227 42.9481 40.2779 42.9481 39.776C42.9481 38.4005 42.4664 37.3282 41.5037 36.5594C40.5407 35.7907 39.1284 35.4062 37.2675 35.4062C36.5716 35.4062 35.8918 35.4631 35.2284 35.5762C34.5646 35.6895 33.9374 35.8475 33.3468 36.0496C32.7559 36.252 32.2181 36.4949 31.7326 36.7778C31.2472 37.0612 30.8504 37.3727 30.543 37.7125L33.4563 41.1355C33.974 40.5206 34.4718 40.0756 34.9492 39.8002C35.4265 39.5252 35.9325 39.3876 36.4665 39.3876ZM51.9784 42.5553H49.5928L51.9784 39.4434V42.5553Z" fill="#2E2484"/>
</svg>
