<?xml version="1.0" encoding="UTF-8"?>
<!DOCTYPE svg PUBLIC "-//W3C//DTD SVG 1.1//EN" "http://www.w3.org/Graphics/SVG/1.1/DTD/svg11.dtd">
<!-- Creator: CorelDRAW X8 -->
<svg xmlns="http://www.w3.org/2000/svg" xml:space="preserve" width="200mm" height="30mm" version="1.1" style="shape-rendering:geometricPrecision; text-rendering:geometricPrecision; image-rendering:optimizeQuality; fill-rule:evenodd; clip-rule:evenodd"
viewBox="0 0 20000 3000"
 xmlns:xlink="http://www.w3.org/1999/xlink">
 <defs>
  <style type="text/css">
   <![CDATA[
    .fil8 {fill:url(#id0)}
    .fil10 {fill:url(#id1)}
    .fil6 {fill:url(#id2)}
    .fil0 {fill:url(#id3)}
    .fil2 {fill:url(#id4)}
    .fil4 {fill:url(#id5)}
    .fil5 {fill:url(#id6);fill-rule:nonzero}
    .fil15 {fill:url(#id7);fill-rule:nonzero}
    .fil17 {fill:url(#id8);fill-rule:nonzero}
    .fil12 {fill:url(#id9);fill-rule:nonzero}
    .fil16 {fill:url(#id10);fill-rule:nonzero}
    .fil9 {fill:url(#id11);fill-rule:nonzero}
    .fil3 {fill:url(#id12);fill-rule:nonzero}
    .fil13 {fill:url(#id13);fill-rule:nonzero}
    .fil7 {fill:url(#id14);fill-rule:nonzero}
    .fil1 {fill:url(#id15);fill-rule:nonzero}
    .fil14 {fill:url(#id16);fill-rule:nonzero}
    .fil11 {fill:url(#id17);fill-rule:nonzero}
   ]]>
  </style>
  <linearGradient id="id0" gradientUnits="userSpaceOnUse" x1="392.95" y1="3377.72" x2="18952.5" y2="472.17">
   <stop offset="0" style="stop-opacity:1; stop-color:#64F8E2"/>
   <stop offset="0.101961" style="stop-opacity:1; stop-color:#32FBE5"/>
   <stop offset="0.211765" style="stop-opacity:1; stop-color:#FF00B0"/>
   <stop offset="0.4" style="stop-opacity:1; stop-color:#F6EB39"/>
   <stop offset="0.631373" style="stop-opacity:1; stop-color:#F149B3"/>
   <stop offset="1" style="stop-opacity:1; stop-color:#00FFE8"/>
  </linearGradient>
  <linearGradient id="id1" gradientUnits="userSpaceOnUse" xlink:href="#id0" x1="392.95" y1="3377.72" x2="18952.5" y2="472.17">
  </linearGradient>
  <linearGradient id="id2" gradientUnits="userSpaceOnUse" xlink:href="#id0" x1="392.95" y1="3377.72" x2="18952.5" y2="472.17">
  </linearGradient>
  <linearGradient id="id3" gradientUnits="userSpaceOnUse" xlink:href="#id0" x1="392.946" y1="3377.72" x2="18952.5" y2="472.165">
  </linearGradient>
  <linearGradient id="id4" gradientUnits="userSpaceOnUse" xlink:href="#id0" x1="392.946" y1="3377.72" x2="18952.5" y2="472.165">
  </linearGradient>
  <linearGradient id="id5" gradientUnits="userSpaceOnUse" xlink:href="#id0" x1="392.95" y1="3377.72" x2="18952.5" y2="472.17">
  </linearGradient>
  <linearGradient id="id6" gradientUnits="userSpaceOnUse" xlink:href="#id0" x1="392.7" y1="3377.75" x2="18953.1" y2="472.06">
  </linearGradient>
  <linearGradient id="id7" gradientUnits="userSpaceOnUse" xlink:href="#id0" x1="392.98" y1="3377.7" x2="18952.4" y2="472.22">
  </linearGradient>
  <linearGradient id="id8" gradientUnits="userSpaceOnUse" xlink:href="#id0" x1="392.96" y1="3377.76" x2="18952.6" y2="472.12">
  </linearGradient>
  <linearGradient id="id9" gradientUnits="userSpaceOnUse" xlink:href="#id0" x1="392.96" y1="3377.71" x2="18952.5" y2="472.18">
  </linearGradient>
  <linearGradient id="id10" gradientUnits="userSpaceOnUse" xlink:href="#id0" x1="392.8" y1="3377.8" x2="18952.7" y2="472.1">
  </linearGradient>
  <linearGradient id="id11" gradientUnits="userSpaceOnUse" xlink:href="#id0" x1="393.01" y1="3377.69" x2="18952.3" y2="472.17">
  </linearGradient>
  <linearGradient id="id12" gradientUnits="userSpaceOnUse" xlink:href="#id0" x1="392.95" y1="3377.72" x2="18952.5" y2="472.17">
  </linearGradient>
  <linearGradient id="id13" gradientUnits="userSpaceOnUse" xlink:href="#id0" x1="393.04" y1="3377.66" x2="18952.2" y2="472.17">
  </linearGradient>
  <linearGradient id="id14" gradientUnits="userSpaceOnUse" xlink:href="#id0" x1="393.05" y1="3377.69" x2="18952.3" y2="472.18">
  </linearGradient>
  <linearGradient id="id15" gradientUnits="userSpaceOnUse" xlink:href="#id0" x1="392.82" y1="3377.82" x2="18952.7" y2="472.07">
  </linearGradient>
  <linearGradient id="id16" gradientUnits="userSpaceOnUse" xlink:href="#id0" x1="392.96" y1="3377.71" x2="18952.5" y2="472.17">
  </linearGradient>
  <linearGradient id="id17" gradientUnits="userSpaceOnUse" xlink:href="#id0" x1="393.31" y1="3377.55" x2="18951.7" y2="472.51">
  </linearGradient>
 </defs>
 <g id="Слой_x0020_1">
  <metadata id="CorelCorpID_0Corel-Layer"/>
  <g id="_1646136026288">
   <g>
    <path class="fil0" d="M6746 2035c-38,-3 -69,-33 -73,-71 -4,-38 19,-74 56,-86 36,-11 76,5 95,38 18,34 10,76 -19,101 -17,14 -38,20 -59,18l0 0zm11 -128c-19,-2 -38,8 -47,26 -9,17 -7,38 6,53 17,20 47,23 68,6 15,-12 21,-33 15,-51 -6,-19 -22,-32 -42,-34zm0 0z"/>
    <path class="fil1" d="M6744 2060c-25,-2 -48,-13 -65,-30 -17,-16 -28,-38 -31,-63 -3,-25 4,-50 17,-69 13,-20 32,-36 56,-43 24,-8 49,-7 71,2 22,9 41,25 53,47 12,23 16,47 12,71 -5,23 -17,45 -36,61 -11,9 -23,16 -36,20 -13,4 -27,5 -41,4zm11 -128c-5,-1 -9,0 -13,3 -4,2 -8,5 -10,9 -2,5 -3,9 -2,14 0,4 2,8 5,12 4,5 10,8 16,8 6,1 12,-1 17,-5 4,-3 6,-7 8,-11 1,-5 1,-9 -1,-14 -1,-4 -4,-8 -7,-11 -4,-3 -8,-5 -13,-5z"/>
    <path class="fil2" d="M7090 1700l0 -14c0,-8 -5,-15 -13,-16l-14 -2c-175,-29 -352,31 -474,159l-74 79c-77,-60 -186,-58 -262,5 -3,3 -5,7 -5,11 -1,5 1,9 3,12l112 133 -2 2c-17,18 -18,46 -2,65l1 0 -37 31c-34,29 -39,80 -10,114l45 53c28,34 79,39 113,10l37 -31 1 1c16,19 43,23 63,9l3 -1 111 133c3,3 7,5 11,5 5,1 9,-1 12,-3 76,-63 97,-170 51,-257l90 -59c148,-97 238,-262 240,-439l0 0zm-803 226c62,-43 145,-42 206,3l-108 115 -98 -118zm164 392c-21,17 -51,14 -69,-6l-45 -54c-17,-21 -14,-51 6,-68l37 -31 108 127 -37 32zm300 -8c-3,41 -21,80 -51,109l-98 -117 131 -87c15,30 21,62 18,95l0 0zm82 -198l-278 182c-7,5 -16,3 -21,-3l-150 -178c-5,-6 -5,-16 1,-22l228 -241c42,-46 93,-82 149,-109l204 242c-36,51 -82,95 -133,129zm151 -157l-191 -227c72,-29 149,-40 227,-33 12,1 25,2 38,4l0 1c-1,90 -27,178 -74,255l0 0zm0 0z"/>
    <path class="fil3" d="M7115 1686l0 14c-1,93 -25,182 -68,261 -43,79 -106,148 -183,198l-72 48c17,43 21,89 12,133 -10,51 -37,99 -79,134 -4,3 -9,6 -14,7 -5,2 -10,3 -16,2l0 0c-5,0 -10,-2 -15,-4 -5,-3 -9,-6 -13,-10l-99 -119c-11,4 -22,5 -33,3 -9,-1 -18,-4 -27,-9l-21 17c-22,19 -50,27 -77,25 -26,-3 -52,-15 -71,-38l-45 -53c-19,-23 -27,-50 -25,-77 3,-27 15,-53 38,-72l21 -18c-4,-9 -5,-18 -5,-28 0,-11 3,-22 9,-32l-100 -118c-3,-4 -6,-9 -7,-14 -2,-5 -3,-11 -2,-16 0,-5 2,-10 4,-15 3,-5 6,-9 11,-13 42,-35 93,-53 145,-55 45,0 90,11 129,36l59 -63c64,-67 142,-116 227,-145 85,-29 178,-37 269,-22l14 2c10,2 18,7 25,15 6,7 9,16 9,26zm-725 233c-22,0 -44,5 -65,14l61 73 68 -71c-20,-10 -42,-15 -64,-16zm27 385c6,0 13,-1 18,-6l18 -15 -76 -89 -18 15c-5,4 -7,10 -8,16 0,6 1,12 6,17l44 54c5,5 10,7 16,8zm296 54c7,-16 12,-33 13,-50 2,-14 1,-28 -2,-42 0,-4 -1,-9 -3,-13l-82 54 61 73c5,-7 9,-14 13,-22zm-165 -89l271 -178c24,-16 48,-35 69,-55 16,-16 32,-33 46,-52l-178 -212c-21,11 -40,23 -59,36 -24,18 -46,37 -66,59l-223 236 140 166zm287 -530l145 173c14,-28 26,-57 34,-86 10,-34 16,-70 18,-105l-15 -2c-36,-3 -73,-2 -109,4 -25,3 -49,9 -73,16z"/>
    <path class="fil4" d="M5794 2884c14,0 26,12 26,27 0,14 -12,26 -26,26 -15,0 -27,-12 -27,-26 0,-15 12,-27 27,-27z"/>
    <path class="fil5" d="M5794 2867c12,0 23,5 31,13 8,8 13,19 13,31 0,12 -5,23 -13,31 -8,8 -19,13 -31,13 -12,0 -23,-5 -31,-13 -8,-8 -13,-19 -13,-31 0,-12 5,-23 13,-31 8,-8 19,-13 31,-13zm6 37c-2,-1 -4,-2 -6,-2 -3,0 -5,1 -7,2 -1,2 -2,4 -2,7 0,2 1,4 2,6 2,2 4,3 7,3 2,0 5,-1 6,-3 2,-2 3,-4 3,-6 0,-3 -1,-5 -3,-7z"/>
    <path class="fil6" d="M7809 1027c15,0 26,11 26,26 0,15 -11,26 -26,26 -15,0 -26,-11 -26,-26 0,-15 11,-26 26,-26z"/>
    <path class="fil7" d="M7809 999c15,0 28,6 38,16 10,10 16,23 16,38 0,15 -6,28 -16,38 -10,10 -23,16 -38,16 -15,0 -28,-6 -38,-16 -10,-10 -16,-23 -16,-38 0,-15 6,-28 16,-38 10,-10 23,-16 38,-16zm1 53l-1 1 0 -1c0,0 -1,0 -1,0l1 1 0 0c0,0 1,-1 1,-1zm-1 1l-1 0c0,0 0,1 0,1l1 -1zm-1 1c1,0 1,0 1,0l0 -1 -1 1zm2 0l-1 -1 0 1c0,0 0,0 1,0z"/>
    <path class="fil8" d="M5004 745c15,0 27,12 27,26 0,15 -12,26 -27,26 -14,0 -26,-11 -26,-26 0,-14 12,-26 26,-26z"/>
    <path class="fil9" d="M5004 717c15,0 29,6 38,16l0 0c10,10 16,23 16,38 0,15 -6,28 -16,38 -9,10 -23,16 -38,16 -14,0 -28,-6 -38,-16 -9,-10 -15,-23 -15,-38 0,-15 6,-28 15,-38 10,-10 24,-16 38,-16zm1 54l0 0 0 1c0,0 0,-1 0,-1l0 0 0 0zm0 1l-1 -1 1 1z"/>
    <path class="fil10" d="M6415 63c14,0 26,12 26,26 0,15 -12,27 -26,27 -15,0 -27,-12 -27,-27 0,-14 12,-26 27,-26z"/>
    <path class="fil11" d="M6415 45c12,0 23,5 30,13 8,8 13,19 13,31 0,12 -5,23 -13,31 -7,8 -18,13 -30,13 -12,0 -23,-5 -31,-13 -8,-8 -13,-19 -13,-31 0,-12 5,-23 13,-31 8,-8 18,-13 31,-13zm6 38c-2,-2 -4,-3 -6,-3 -3,0 -5,1 -7,3 -1,2 -2,4 -2,6 0,3 1,5 2,7 2,1 4,2 7,2 2,0 4,-1 6,-2 1,-2 2,-4 2,-7 0,-2 -1,-5 -2,-6z"/>
    <path class="fil12" d="M7518 1305c-7,-26 9,-54 35,-60 27,-7 54,9 61,35 13,52 13,58 20,113 6,54 10,108 10,163 0,350 -142,667 -371,896 -230,229 -546,371 -896,371 -78,0 -154,-7 -229,-20 -76,-14 -111,-21 -181,-48 -26,-9 -39,-38 -29,-64 10,-25 38,-38 64,-29 65,25 94,30 164,43 67,12 138,19 211,19 322,0 614,-131 825,-342 212,-212 343,-504 343,-826 0,-52 -4,-102 -10,-151 -6,-50 -5,-52 -17,-100zm-1844 1184c22,17 27,48 10,70 -16,22 -48,26 -69,10 -157,-118 -285,-271 -373,-448 -85,-170 -133,-362 -133,-565 0,-350 142,-667 371,-897 230,-229 546,-371 897,-371 211,0 410,52 585,143 182,95 338,233 455,400 15,23 10,54 -13,69 -22,16 -53,11 -69,-12 -107,-154 -251,-281 -419,-369 -161,-84 -344,-131 -539,-131 -323,0 -615,130 -826,342 -212,211 -343,503 -343,826 0,187 45,364 123,521 81,162 199,304 343,412z"/>
    <path class="fil13" d="M5174 163c16,0 30,14 30,30 0,32 13,60 33,81l0 0c21,21 50,34 81,34 17,0 30,13 30,30 0,16 -13,30 -30,30 -31,0 -60,12 -81,33 -20,21 -33,50 -33,81 0,17 -14,30 -30,30 -17,0 -30,-13 -30,-30 0,-31 -13,-60 -34,-81 -20,-21 -49,-33 -81,-33 -16,0 -30,-14 -30,-30 0,-17 14,-30 30,-30 32,0 60,-13 81,-34 21,-21 34,-49 34,-81 0,-16 13,-30 30,-30zm21 153l0 0c-8,-8 -15,-16 -21,-26 -6,10 -14,18 -22,26 -7,8 -16,15 -25,22 9,6 17,13 25,21l0 0c8,8 15,17 22,26 6,-9 13,-18 21,-26 8,-8 17,-15 26,-21 -9,-7 -18,-14 -25,-21l-1 -1z"/>
    <path class="fil14" d="M7108 483c-25,11 -55,1 -66,-24 -12,-25 -1,-54 24,-66 61,-29 176,-58 284,-64 87,-5 172,5 225,42 6,4 12,8 18,13 106,86 127,237 82,420 -42,171 -141,374 -281,578 -47,69 -99,138 -155,207 -17,21 -48,24 -69,7 -22,-17 -25,-49 -8,-70 54,-66 104,-133 150,-200 133,-195 227,-386 266,-545 36,-146 25,-261 -48,-320 -3,-3 -7,-5 -11,-8 -33,-23 -96,-29 -164,-25 -95,6 -195,30 -247,55zm-931 1862c23,-16 54,-10 69,12 16,23 10,54 -12,69 -287,198 -531,334 -718,387 -210,58 -356,19 -424,-143 -6,-14 -23,-61 -29,-134 -5,-71 1,-168 41,-285 9,-26 37,-40 63,-31 26,9 40,37 31,63 -35,102 -40,185 -36,246 5,57 18,92 22,103 44,105 150,128 305,85 176,-50 410,-180 688,-372z"/>
    <path class="fil15" d="M5441 1556c0,27 -22,49 -50,49 -27,0 -50,-22 -50,-49 0,-23 1,-46 3,-70 1,-23 4,-46 7,-69 19,-143 67,-276 138,-394 72,-121 169,-226 284,-308 22,-16 53,-11 69,11 16,22 11,53 -12,69 -103,75 -190,170 -256,279 -64,107 -108,227 -125,356l0 0c-3,20 -5,41 -6,62l0 1c-1,20 -2,41 -2,63zm563 -859c-25,11 -54,-1 -65,-26 -11,-25 1,-54 26,-65 64,-28 131,-50 201,-64 68,-14 139,-22 211,-22 27,0 49,23 49,50 0,28 -22,50 -49,50 -66,0 -130,7 -191,19 -63,13 -124,33 -182,58z"/>
    <path class="fil16" d="M7575 2515c9,0 16,4 22,9 5,6 9,13 9,22 0,12 2,23 6,33 5,11 11,21 19,29l1 0c8,8 17,14 28,19 10,4 22,6 33,6 9,0 16,4 22,9 5,6 9,13 9,22 0,8 -4,16 -9,21 -6,6 -13,9 -22,9 -11,0 -23,2 -33,7 -11,4 -20,11 -28,19 -9,8 -15,18 -20,28 -4,11 -6,22 -6,34 0,8 -4,16 -9,21 -6,6 -13,9 -22,9 -8,0 -15,-3 -21,-9 -5,-5 -9,-13 -9,-21 0,-12 -2,-23 -6,-34 -5,-10 -11,-20 -20,-28 -8,-8 -17,-15 -28,-19 -10,-5 -22,-7 -34,-7 -8,0 -15,-3 -21,-9 -5,-5 -9,-13 -9,-21 0,-9 4,-16 9,-22 6,-5 13,-9 21,-9 12,0 24,-2 34,-6 11,-5 20,-11 28,-19 9,-8 15,-18 20,-29 4,-10 6,-21 6,-33 0,-9 4,-16 9,-22 6,-5 13,-9 21,-9zm14 135l0 0c-4,-3 -7,-7 -10,-10l-3 -5 -4 5c-3,4 -7,7 -10,10 -3,4 -7,7 -10,10l-5 4 4 3c4,4 8,7 11,10l0 0c3,3 7,7 10,11l3 4 4 -4c3,-4 7,-8 10,-11 3,-3 7,-6 10,-10l5 -3 -4 -4c-4,-3 -8,-6 -11,-9l0 -1z"/>
   </g>
   <path class="fil17" d="M0 2110l131 0 0 -399 327 0 0 -114 -327 0 0 -308 384 0 0 -114 -515 0 0 935zm1025 0l133 0 94 -269 352 0 94 269 135 0 -335 -935 -139 0 -334 935zm262 -378l104 -295c16,-49 36,-134 36,-134l3 0c0,0 21,85 37,134l103 295 -283 0zm1106 -95c0,274 189,488 479,488 166,0 282,-68 362,-148l-71 -94c-75,76 -182,122 -287,122 -217,0 -348,-171 -348,-369 0,-198 129,-358 346,-358 96,0 201,41 270,102l66 -98c-90,-86 -221,-123 -342,-123 -278,0 -475,207 -475,478zm1721 473l130 0 0 -821 321 0 0 -114 -773 0 0 114 322 0 0 821zm4196 0l131 0 0 -372 200 0 197 372 148 0 -198 -363c-16,-29 -27,-42 -27,-42l0 -3c102,-35 167,-138 167,-257 0,-119 -58,-205 -148,-245 -39,-17 -84,-25 -174,-25l-296 0 0 935zm131 -486l0 -335 155 0c59,0 88,5 112,16 58,25 88,79 88,147 0,103 -65,172 -167,172l-188 0zm1372 486l130 0 0 -396 314 -539 -148 0 -172 307c-30,54 -57,118 -57,118l-3 0c0,0 -29,-64 -57,-118l-172 -307 -148 0 313 539 0 396zm1525 0l131 0 0 -935 -131 0 0 935zm875 0l131 0 0 -607c0,-53 -8,-136 -8,-136l3 0c0,0 44,85 77,136l417 607 128 0 0 -935 -130 0 0 606c0,53 8,137 8,137l-2 0c0,0 -44,-85 -77,-137l-417 -606 -130 0 0 935zm1919 -108c81,80 195,123 308,123 190,0 297,-119 297,-266 0,-300 -450,-247 -450,-447 0,-81 73,-132 168,-132 75,0 155,34 207,82l59 -108c-68,-64 -168,-95 -260,-95 -174,0 -306,102 -306,260 0,291 451,244 451,451 0,81 -66,134 -164,134 -88,0 -178,-47 -235,-101l-75 99zm1287 108l131 0 0 -346 212 0c171,0 292,-119 292,-296 0,-178 -121,-293 -292,-293l-343 0 0 935zm131 -460l0 -361 192 0c110,0 180,67 180,179 0,112 -70,182 -181,182l-191 0zm1013 460l133 0 94 -269 352 0 94 269 135 0 -334 -935 -139 0 -335 935zm262 -378l104 -295c16,-49 36,-134 36,-134l3 0c0,0 21,85 37,134l103 295 -283 0zm1106 -95c0,274 190,488 479,488 166,0 282,-68 362,-148l-70 -94c-76,76 -183,122 -288,122 -217,0 -348,-171 -348,-369 0,-198 129,-358 346,-358 96,0 201,41 270,102l66 -98c-90,-86 -221,-123 -342,-123 -277,0 -475,207 -475,478zm1503 473l566 0 0 -114 -435 0 0 -301 335 0 0 -114 -335 0 0 -292 413 0 0 -114 -544 0 0 935z"/>
  </g>
 </g>
</svg>
