<svg width="76" height="35" viewBox="0 0 76 35" fill="none" xmlns="http://www.w3.org/2000/svg">
<path d="M9.94325 26.5213H2.55688V13.1239H71.0228V28.982H9.94325V26.5213Z" fill="#2E2484"/>
<ellipse cx="61.0795" cy="30.4872" rx="4.82954" ry="4.51276" fill="#4A494A"/>
<ellipse cx="61.0796" cy="30.4867" rx="3.21969" ry="3.00851" fill="#F0F0F0"/>
<ellipse cx="17.6137" cy="30.4872" rx="4.82955" ry="4.51276" fill="#4A494A"/>
<ellipse cx="17.6137" cy="30.4867" rx="3.2197" ry="3.00851" fill="#F0F0F0"/>
<path d="M70.0284 6.28857H54.9716C54.4034 6.28857 54.072 9.20501 53.9773 10.6632V24.8808H61.0796C65.625 24.8808 67.0455 27.615 67.1875 28.9821H73.7216C74.6307 28.9821 74.9527 28.5264 75 28.2985V24.8808H74.1477V23.9239H75V17.3619L74.4318 16.8151C73.8637 14.2996 71.2595 8.74931 70.0284 6.28857Z" fill="#DADADA" stroke="#2E2484" stroke-width="0.5"/>
<rect x="55.3635" y="8.72583" width="4.32955" height="5.24173" rx="0.75" stroke="#2E2484" stroke-width="0.5"/>
<path d="M61.6477 8.74928V15.0378L69.8863 16.2682H71.5909C70.9754 14.5821 69.6307 10.9366 69.1761 9.84294C68.7216 8.74939 67.3298 8.7493 66.9035 8.74927H66.9034L61.6477 8.74928Z" fill="#F3F3F3" stroke="#2E2484" stroke-width="0.5"/>
<path d="M60.7956 8.74879V24.8808C64.9148 24.8808 67.1875 26.9315 67.1875 28.9821H72.7273V16.6778C72.1591 14.9462 70.8523 11.1002 70.1705 9.56904C69.4886 8.03791 68.4659 7.65566 67.7557 7.51896C66.7614 7.38242 64.2331 7.38171 62.6421 7.38171C61.0512 7.38171 60.7482 8.2931 60.7956 8.74879Z" stroke="#2E2484" stroke-width="0.5"/>
<path d="M70.5008 8.5C70.0708 7.75517 70.3204 7.55172 70.4996 7.5C70.9298 7.99655 73.425 14.2069 74.5 17L73.5003 16.5C73.0003 14 70.9309 9.24483 70.5008 8.5Z" fill="#5B5D5B"/>
<rect x="0.478477" y="22.3518" width="52.4521" height="0.956954" fill="#F3F3F3" stroke="#0083D1" stroke-width="0.956954"/>
<rect x="0.5" y="0.5" width="52.4091" height="20.8732" fill="#5DA6E4" stroke="#2E2484"/>
<line x1="9.30688" y1="2.18557e-08" x2="9.30688" y2="21.8732" stroke="#2E2484"/>
<line x1="18.1138" y1="2.18557e-08" x2="18.1138" y2="21.8732" stroke="#2E2484"/>
<line x1="26.9204" y1="2.18557e-08" x2="26.9204" y2="21.8732" stroke="#2E2484"/>
<line x1="35.7273" y1="2.18557e-08" x2="35.7273" y2="21.8732" stroke="#2E2484"/>
<line x1="44.5342" y1="2.18557e-08" x2="44.5342" y2="21.8732" stroke="#2E2484"/>
<rect x="74.1477" y="18.0454" width="0.852272" height="5.19489" fill="#5B5D5B"/>
<rect x="2.5568" y="24.6181" width="0.568182" height="3.25963" fill="#C4C4C4" stroke="#5B5D5B" stroke-width="0.568182"/>
<line x1="54" y1="21.75" x2="72" y2="21.75" stroke="#2E2484" stroke-width="0.5"/>
<line x1="64" y1="26.75" x2="71.9545" y2="26.75" stroke="#2E2484" stroke-width="0.5"/>
<line x1="69.6023" y1="23.2638" x2="71.5909" y2="23.2638" stroke="#5B5D5B" stroke-width="0.5"/>
<line x1="62.5" y1="17.2485" x2="64.4886" y2="17.2485" stroke="#5B5D5B" stroke-width="0.5"/>
</svg>
