<svg width="74" height="44" viewBox="0 0 74 44" fill="none" xmlns="http://www.w3.org/2000/svg">
<rect x="8.58838" y="27.0757" width="12.8824" height="5.07741" fill="#2E2484"/>
<rect x="31.0498" y="27.0757" width="12.8824" height="5.07741" fill="#2E2484"/>
<rect x="0.5" y="28.9291" width="40.2896" height="7.46235" fill="#0083D1" stroke="#2E2484"/>
<rect x="31.5498" y="31.2988" width="12.2127" height="7.46235" fill="#0083D1" stroke="#2E2484"/>
<path d="M44.2625 37.2304V2.53472C49.8778 2.08339 61.6371 1.14689 63.7511 1.01149C65.8652 0.876094 67.3846 1.97056 67.8801 2.53472L70.8529 6.4274L69.6968 7.27363L73 18.9517V30.2912V38.0766C73 40.3784 71.5007 40.4461 70.6878 40.4461H62.2647L49.3824 39.5998L44.2625 37.2304Z" fill="#0083D1" stroke="#2E2484"/>
<path d="M50.7035 32.4915L47.0701 29.9528V5.58118" stroke="#2E2484"/>
<path d="M66.0629 19.7982L56.3186 17.2595V8.96643H62.0991C63.5525 8.96643 64.1361 10.0947 64.2462 10.6589L66.0629 19.7982Z" fill="#F1F1F1" stroke="#2E2484" stroke-width="0.5"/>
<path d="M53.677 16.2441V8.96643H50.7042L48.2268 14.7208L53.677 16.2441Z" fill="#F1F1F1" stroke="#2E2484" stroke-width="0.5"/>
<path d="M68.7063 18.2746L72.8352 19.6286L69.8624 8.45825H66.0637L68.7063 18.2746Z" fill="#DEDFDE" stroke="#2E2484" stroke-width="0.5"/>
<path d="M64.2463 1.01111L65.8979 7.4425H69.5314" stroke="#2E2484"/>
<path d="M68.7063 39.2611V36.8916L71.514 38.0763V39.2611H68.7063Z" fill="#C4C4C4" stroke="#2E2484" stroke-width="0.5"/>
<path d="M68.7063 35.3681V30.2906C70.9525 30.2906 71.514 34.5782 71.514 36.722L68.7063 35.3681Z" fill="#C4C4C4" stroke="#2E2484" stroke-width="0.5"/>
<path d="M67.7147 29.2751L46.7396 22.6744L43.9319 21.9974" stroke="#2E2484" stroke-width="0.5"/>
<ellipse cx="55.3276" cy="37.0604" rx="6.7715" ry="6.93914" fill="#4A494A"/>
<ellipse cx="55.3268" cy="37.0599" rx="4.51432" ry="4.62609" fill="#DEDFDE"/>
<ellipse cx="22.9573" cy="36.7225" rx="6.77149" ry="6.93913" fill="#4A494A"/>
<ellipse cx="22.9565" cy="36.722" rx="4.51433" ry="4.62609" fill="#DEDFDE"/>
<ellipse cx="8.75318" cy="36.7225" rx="6.77149" ry="6.93913" fill="#4A494A"/>
<ellipse cx="8.75237" cy="36.722" rx="4.51433" ry="4.62609" fill="#DEDFDE"/>
<path d="M44.4277 5.58078C48.1713 5.86286 55.3964 5.83211 55 1.49939" stroke="#2E2484"/>
<path d="M44.0972 7.61175H62.5949C63.2555 7.55534 64.742 7.9841 65.4026 10.1505C66.0632 12.3168 67.2193 17.4845 67.7148 19.7975V29.2753L66.7239 36.2144H63.751C63.5308 33.5629 61.5379 28.2598 55.3279 28.2598C55.3279 22.9793 55.3279 12.9712 55.3279 8.62717" stroke="#2E2484"/>
<path d="M55.989 23.1823L59.2922 24.1977V25.5517L55.989 24.5362V23.1823Z" fill="#2E2484"/>
<rect x="71.6792" y="21.3207" width="1.32127" height="7.78536" fill="#2E2484"/>
</svg>
