<svg width="26" height="24" viewBox="0 0 26 24" fill="none" xmlns="http://www.w3.org/2000/svg">
<path fill-rule="evenodd" clip-rule="evenodd" d="M13.2707 17.1819C14.1386 17.1819 14.9554 16.8415 15.5686 16.2229L23.2992 8.43812C23.6459 9.56392 23.8332 10.7596 23.8332 11.9999C23.8332 18.6273 18.4978 24 11.9167 24C5.33539 24 0 18.6273 0 11.9999C0 5.37273 5.33539 0 11.9167 0C14.8644 0 17.5576 1.08325 19.6376 2.86904L13.2707 9.28028L10.9644 6.95896C10.3512 6.34033 9.53435 5.99995 8.66671 5.99995C7.79887 5.99995 6.98201 6.34033 6.36886 6.95896C5.75473 7.57639 5.41672 8.39877 5.41672 9.27269C5.41672 10.1466 5.75473 10.969 6.36886 11.5866L10.9731 16.2229C11.5862 16.8415 12.4031 17.1819 13.2707 17.1819ZM12.5048 14.6805C12.7161 14.8933 12.9934 15.0001 13.2707 15.0001C13.548 15.0001 13.8255 14.8933 14.0366 14.6805L25.6825 2.95328C26.106 2.52661 26.106 1.83727 25.6825 1.4106C25.2588 0.984128 24.5742 0.984128 24.1507 1.4106L13.2707 12.3666L9.43255 8.50159C9.00885 8.07492 8.32429 8.07492 7.90079 8.50159C7.47708 8.92806 7.47708 9.61761 7.90079 10.0441L12.5048 14.6805Z" fill="#DADADA"/>
</svg>
