<svg width="100" height="35" viewBox="0 0 100 35" fill="none" xmlns="http://www.w3.org/2000/svg">
<path opacity="0.8" d="M15.047 27.5443H0V21.6094H99.5298V25.2616H74.7649V33.327H76.6458V35.001H71.1599V33.327H73.511V25.2616H72.2571L69.906 27.5443H41.0658V31.0444H15.047V27.5443Z" fill="#736D73"/>
<rect x="0.5" y="0.5" width="99" height="23.6527" fill="#F5F5F5" stroke="#616161"/>
<rect x="0.5" y="22.1094" width="99" height="2.04355" fill="#DEDFDE" stroke="#535353"/>
<rect x="0.304355" y="20.0876" width="99.3913" height="0.608709" fill="#DEDFDE" stroke="#535353" stroke-width="0.608709"/>
<path fill-rule="evenodd" clip-rule="evenodd" d="M1.25391 19.1729V24.6512H1.75391L1.75391 19.1729H1.25391ZM37.9309 19.1733V24.6516H38.4309V19.1733L37.9309 19.1733ZM13.4799 24.6516V19.1733L13.9799 19.1733V24.6516H13.4799ZM50.1563 19.1733V24.6516H50.6563V19.1733L50.1563 19.1733ZM74.6092 24.6516V19.1733L75.1092 19.1733V24.6516H74.6092ZM25.7054 19.1733V24.6516H26.2054V19.1733L25.7054 19.1733ZM62.3818 24.6516V19.1733L62.8818 19.1733V24.6516H62.3818ZM86.8346 19.1733V24.6516H87.3346V19.1733L86.8346 19.1733ZM5.33081 24.6516V19.1733L5.83081 19.1733V24.6516H5.33081ZM42.0054 19.1733V24.6516H42.5054V19.1733L42.0054 19.1733ZM17.5544 24.6516V19.1733L18.0544 19.1733V24.6516H17.5544ZM54.2327 19.1733V24.6516H54.7327V19.1733L54.2327 19.1733ZM78.6837 24.6516V19.1733L79.1837 19.1733V24.6516H78.6837ZM29.7799 19.1733V24.6516H30.2799V19.1733L29.7799 19.1733ZM66.4582 24.6516V19.1733L66.9582 19.1733V24.6516H66.4582ZM90.9092 19.1733V24.6516H91.4092V19.1733L90.9092 19.1733ZM9.4035 24.6516V19.1733L9.9035 19.1733V24.6516H9.4035ZM46.0818 19.1733V24.6516H46.5818V19.1733L46.0818 19.1733ZM21.6308 24.6516V19.1733L22.1308 19.1733V24.6516H21.6308ZM58.3073 19.1733V24.6516H58.8073V19.1733L58.3073 19.1733ZM82.7582 24.6516V19.1733L83.2582 19.1733V24.6516H82.7582ZM33.8563 19.1733V24.6516H34.3563V19.1733L33.8563 19.1733ZM70.5328 24.6516V19.1733L71.0328 19.1733V24.6516H70.5328ZM94.9837 19.1733V24.6516H95.4837V19.1733L94.9837 19.1733Z" fill="#686968"/>
<ellipse cx="20.6895" cy="31.3476" rx="3.76176" ry="3.65225" fill="#4A494A"/>
<ellipse cx="20.6895" cy="31.3479" rx="2.50784" ry="2.43484" fill="#DEDFDE"/>
<ellipse cx="28.8399" cy="31.3476" rx="3.76176" ry="3.65225" fill="#4A494A"/>
<ellipse cx="28.8399" cy="31.3479" rx="2.50784" ry="2.43484" fill="#DEDFDE"/>
<ellipse cx="36.9903" cy="31.3476" rx="3.76176" ry="3.65225" fill="#4A494A"/>
<ellipse cx="36.9903" cy="31.3479" rx="2.50784" ry="2.43484" fill="#DEDFDE"/>
<mask id="path-13-inside-1" fill="white">
<path fill-rule="evenodd" clip-rule="evenodd" d="M43.8867 26.1748H42.6328V31.3488H66.4573V26.1748H65.2033V28.9128H43.8867V26.1748Z"/>
</mask>
<path fill-rule="evenodd" clip-rule="evenodd" d="M43.8867 26.1748H42.6328V31.3488H66.4573V26.1748H65.2033V28.9128H43.8867V26.1748Z" fill="#C4C4C4"/>
<path d="M42.6328 26.1748V25.6748H42.1328V26.1748H42.6328ZM43.8867 26.1748H44.3867V25.6748H43.8867V26.1748ZM42.6328 31.3488H42.1328V31.8488H42.6328V31.3488ZM66.4573 31.3488V31.8488H66.9573V31.3488H66.4573ZM66.4573 26.1748H66.9573V25.6748H66.4573V26.1748ZM65.2033 26.1748V25.6748H64.7033V26.1748H65.2033ZM65.2033 28.9128V29.4128H65.7033V28.9128H65.2033ZM43.8867 28.9128H43.3867V29.4128H43.8867V28.9128ZM42.6328 26.6748H43.8867V25.6748H42.6328V26.6748ZM43.1328 31.3488V26.1748H42.1328V31.3488H43.1328ZM66.4573 30.8488H42.6328V31.8488H66.4573V30.8488ZM65.9573 26.1748V31.3488H66.9573V26.1748H65.9573ZM65.2033 26.6748H66.4573V25.6748H65.2033V26.6748ZM64.7033 26.1748V28.9128H65.7033V26.1748H64.7033ZM65.2033 28.4128H43.8867V29.4128H65.2033V28.4128ZM44.3867 28.9128V26.1748H43.3867V28.9128H44.3867Z" fill="#4A494A" mask="url(#path-13-inside-1)"/>
</svg>
