<svg width="101" height="23" viewBox="0 0 101 23" fill="none" xmlns="http://www.w3.org/2000/svg">
<path d="M82.7381 15.9584H4.47241V8.53589H82.7381V15.9584Z" fill="#2E2484"/>
<rect x="0.25" y="5.81702" width="87.083" height="2.09787" fill="#0083D1" stroke="#2E2484" stroke-width="0.5"/>
<rect x="0.25" y="2.84814" width="87.083" height="2.09787" fill="#0083D1" stroke="#2E2484" stroke-width="0.5"/>
<rect x="0.25" y="0.25" width="87.083" height="1.72675" fill="#0083D1" stroke="#2E2484" stroke-width="0.5"/>
<ellipse cx="68.1901" cy="16.8811" rx="6.32294" ry="6.1187" fill="#4A494A"/>
<ellipse cx="68.1899" cy="16.8808" rx="4.2153" ry="4.07913" fill="#DEDFDE"/>
<ellipse cx="16.3857" cy="16.8811" rx="6.32294" ry="6.1187" fill="#4A494A"/>
<ellipse cx="16.3855" cy="16.8808" rx="4.21529" ry="4.07913" fill="#DEDFDE"/>
<mask id="path-10-inside-1" fill="white">
<path fill-rule="evenodd" clip-rule="evenodd" d="M58.1401 13.3607H26.4612V20.7832H58.1401V13.3607ZM55.4156 15.0384H29.4952V17.6922H55.4156V15.0384Z"/>
</mask>
<path fill-rule="evenodd" clip-rule="evenodd" d="M58.1401 13.3607H26.4612V20.7832H58.1401V13.3607ZM55.4156 15.0384H29.4952V17.6922H55.4156V15.0384Z" fill="#C4C4C4"/>
<path d="M26.4612 13.3607V12.8607H25.9612V13.3607H26.4612ZM58.1401 13.3607H58.6401V12.8607H58.1401V13.3607ZM26.4612 20.7832H25.9612V21.2832H26.4612V20.7832ZM58.1401 20.7832V21.2832H58.6401V20.7832H58.1401ZM29.4952 15.0384V14.5384H28.9952V15.0384H29.4952ZM55.4156 15.0384H55.9156V14.5384H55.4156V15.0384ZM29.4952 17.6922H28.9952V18.1922H29.4952V17.6922ZM55.4156 17.6922V18.1922H55.9156V17.6922H55.4156ZM26.4612 13.8607H58.1401V12.8607H26.4612V13.8607ZM26.9612 20.7832V13.3607H25.9612V20.7832H26.9612ZM58.1401 20.2832H26.4612V21.2832H58.1401V20.2832ZM57.6401 13.3607V20.7832H58.6401V13.3607H57.6401ZM29.4952 15.5384H55.4156V14.5384H29.4952V15.5384ZM29.9952 17.6922V15.0384H28.9952V17.6922H29.9952ZM55.4156 17.1922H29.4952V18.1922H55.4156V17.1922ZM54.9156 15.0384V17.6922H55.9156V15.0384H54.9156Z" fill="#4A494A" mask="url(#path-10-inside-1)"/>
<rect x="82.738" y="9.64966" width="14.9077" height="1.11337" fill="#4A494A"/>
<rect x="32.6743" y="0.25" width="0.990772" height="5.06687" fill="#F7FBF7" stroke="#8F8A8F" stroke-width="0.5"/>
<rect x="47.5823" y="0.25" width="0.990776" height="5.06687" fill="#F7FBF7" stroke="#8F8A8F" stroke-width="0.5"/>
<path fill-rule="evenodd" clip-rule="evenodd" d="M23.2233 16.3296C23.2245 16.2803 23.2252 16.2308 23.2252 16.1813C23.2252 12.7842 20.2391 9.90759 16.3986 9.90759C12.5581 9.90759 9.57202 12.7842 9.57202 16.1813C9.57202 16.2308 9.57266 16.2803 9.57392 16.3296H8.57362C8.57255 16.2803 8.57202 16.2308 8.57202 16.1813C8.57202 12.1641 12.0761 8.90759 16.3986 8.90759C20.7211 8.90759 24.2252 12.1641 24.2252 16.1813C24.2252 16.2308 24.2246 16.2803 24.2236 16.3296H23.2233Z" fill="#4A494A"/>
<path fill-rule="evenodd" clip-rule="evenodd" d="M75.0275 16.3296C75.0287 16.2803 75.0294 16.2308 75.0294 16.1813C75.0294 12.7842 72.0433 9.90759 68.2028 9.90759C64.3623 9.90759 61.3762 12.7842 61.3762 16.1813C61.3762 16.2308 61.3769 16.2803 61.3781 16.3296H60.3778C60.3768 16.2803 60.3762 16.2308 60.3762 16.1813C60.3762 12.1641 63.8803 8.90759 68.2028 8.90759C72.5253 8.90759 76.0294 12.1641 76.0294 16.1813C76.0294 16.2308 76.0288 16.2803 76.0278 16.3296H75.0275Z" fill="#4A494A"/>
<rect x="97.6458" y="8.90759" width="3.35424" height="2.59787" fill="#C4C4C4"/>
</svg>
