<svg width="60" height="38" viewBox="0 0 60 38" fill="none" xmlns="http://www.w3.org/2000/svg">
<path d="M30.3625 37.75C39.0425 37.75 35.9475 32.255 36.6175 30.675C36.6075 29.495 36.5975 28.36 36.6375 27.67C37.1875 27.825 38.485 28.4825 41.165 31.0875C45.3025 35.2625 46.36 37.75 49.7025 37.75H55.855C57.805 37.75 58.82 36.9425 59.3275 36.265C59.8175 35.61 60.2975 34.46 59.7725 32.67C58.4 28.36 50.395 20.9175 49.8975 20.1325C49.9725 19.9875 50.0925 19.795 50.155 19.695H50.15C51.73 17.6075 57.76 8.5725 58.6475 4.9575C58.65 4.9525 58.6525 4.945 58.6525 4.9375C59.1325 3.2875 58.6925 2.2175 58.2375 1.6125C57.5525 0.7075 56.4625 0.25 54.99 0.25H48.8375C46.7775 0.25 45.215 1.2875 44.425 3.18C43.1025 6.5425 39.3875 13.4575 36.6025 15.905C36.5175 12.4375 36.575 9.79 36.62 7.8225C36.71 3.985 37 0.25 33.0175 0.25H23.3475C20.8525 0.25 18.465 2.975 21.05 6.21C23.31 9.045 21.8625 10.625 22.35 18.49C20.45 16.4525 17.07 10.95 14.68 3.9175C14.01 2.015 12.995 0.2525 10.1375 0.2525H3.985C1.49 0.2525 0 1.6125 0 3.89C0 9.005 11.3225 37.75 30.3625 37.75ZM10.1375 4.0025C10.68 4.0025 10.735 4.0025 11.1375 5.145C13.585 12.3525 19.075 23.0175 23.085 23.0175C26.0975 23.0175 26.0975 19.93 26.0975 18.7675L26.095 9.5125C25.93 6.45 24.815 4.925 24.0825 4L32.8525 4.01C32.8575 4.0525 32.8025 14.2475 32.8775 16.7175C32.8775 20.225 35.6625 22.235 40.01 17.835C44.5975 12.6575 47.77 4.9175 47.8975 4.6025C48.085 4.1525 48.2475 4 48.8375 4H54.99H55.015C55.0125 4.0075 55.0125 4.015 55.01 4.0225C54.4475 6.6475 48.895 15.0125 47.0375 17.61C47.0075 17.65 46.98 17.6925 46.9525 17.735C46.135 19.07 45.47 20.545 47.065 22.62H47.0675C47.2125 22.795 47.59 23.205 48.14 23.775C49.85 25.54 55.715 31.575 56.235 33.975C55.89 34.03 55.515 33.99 49.7025 34.0025C48.465 34.0025 47.4975 32.1525 43.805 28.4275C40.485 25.1975 38.33 23.8775 36.3675 23.8775C32.5575 23.8775 32.835 26.97 32.87 30.71C32.8825 34.765 32.8575 33.4825 32.885 33.7375C32.6625 33.825 32.025 34 30.3625 34C14.5 34 4.17 8.8225 3.7725 4.01C3.91 3.9975 5.8025 4.005 10.1375 4.0025Z" fill="#FCFCFC"/>
</svg>
